<svg xmlns="http://www.w3.org/2000/svg" xmlns:xlink="http://www.w3.org/1999/xlink" width="774" height="126" viewBox="0 0 774 126">
  <defs>
    <clipPath id="clip-path">
      <rect id="Rectangle_1" data-name="Rectangle 1" width="774" height="126" transform="translate(539.75 0)" fill="none"/>
    </clipPath>
  </defs>
  <g id="Logo" transform="translate(-539.75 0)">
    <g id="Group_7" data-name="Group 7">
      <g id="Group_6" data-name="Group 6" clip-path="url(#clip-path)">
        <g id="Group_5" data-name="Group 5">
          <g id="Group_4" data-name="Group 4">
            <g id="Group_1" data-name="Group 1">
              <path id="Path_1" data-name="Path 1" d="M1286.811,92.219l-58.5,20.8V90.269l33.8-11.051v-1.3l-33.8-11.05V44.117l58.5,20.8Z" fill="#2d7f6f"/>
            </g>
            <g id="Group_2" data-name="Group 2">
              <path id="Path_2" data-name="Path 2" d="M1233.865,29.736l58.5-20.8V31.686l-31.872,9.355-12-4v4l43.872,14.046V77.838l-58.5-20.8Z" fill="#fff"/>
            </g>
            <path id="Path_3" data-name="Path 3" d="M1194.1,17.642h29.4l-10.5,42-10.5,42h-47.99l-10.8-42-10.8-42h30l6.6,29.4,8.986,36h4l-2-14,6-23.164Z" fill="#fff"/>
            <path id="Path_4" data-name="Path 4" d="M621.509,56.642v-1.2a23.723,23.723,0,0,0,6.9-3.75,16.9,16.9,0,0,0,6.9-13.65,17.859,17.859,0,0,0-6.9-14.475c-4.65-3.675-11.7-5.925-21.3-5.925h-49.2v84h47.4c11.1,0,19.35-2.7,24.825-7.125a21.777,21.777,0,0,0,8.175-17.475c0-8.7-4.2-13.8-8.4-16.725A23.644,23.644,0,0,0,621.509,56.642Zm-33.6-18h9.6c2.4,0,4.05.45,5.1,1.35a5.007,5.007,0,0,1,1.5,4.05,5.007,5.007,0,0,1-1.5,4.05c-1.05.9-2.7,1.35-5.1,1.35h-9.6v-10.8Zm12,42h-12v-13.2h12c2.7,0,4.65.6,5.925,1.725a6.171,6.171,0,0,1,1.875,4.875,6.171,6.171,0,0,1-1.875,4.875C604.559,80.042,602.609,80.642,599.909,80.642Z" fill="#2d7f6f"/>
            <path id="Path_5" data-name="Path 5" d="M1059.109,17.642h69v24h-39v7.8h30.6v20.4h-30.6v7.8h39v24h-69v-84Z" fill="#fff"/>
            <g id="Group_3" data-name="Group 3">
              <path id="Path_6" data-name="Path 6" d="M970.709,76.442h-6v-33.6h6c5.4,0,9.751,1.65,12.751,4.575s4.65,7.125,4.65,12.225-1.65,9.3-4.65,12.225S976.11,76.442,970.709,76.442Zm.6-58.8h-36.6v84h36.6c14.7,0,26.7-4.65,35.021-12.225a39.635,39.635,0,0,0,12.97-29.775,39.635,39.635,0,0,0-12.97-29.775C998.007,22.292,986.009,17.642,971.309,17.642Z" fill="#2d7f6f"/>
              <path id="Path_7" data-name="Path 7" d="M980.905,76.442h-6v-33.6h6c5.4,0,9.75,1.65,12.75,4.575s4.65,7.125,4.65,12.225-1.65,9.3-4.65,12.225S986.3,76.442,980.905,76.442Zm.6-58.8h-36.6v84h36.6c14.7,0,26.7-4.65,35.02-12.225a39.631,39.631,0,0,0,12.97-29.775,39.631,39.631,0,0,0-12.97-29.775C1008.2,22.292,996.205,17.642,981.505,17.642Z" fill="#73aa9f"/>
              <path id="Path_8" data-name="Path 8" d="M991.1,76.442h-6v-33.6h6c5.4,0,9.75,1.65,12.75,4.575s4.65,7.125,4.65,12.225-1.65,9.3-4.65,12.225S996.5,76.442,991.1,76.442Zm.6-58.8H955.1v84h36.6c14.7,0,26.7-4.65,35.02-12.225a39.632,39.632,0,0,0,12.97-29.775,39.632,39.632,0,0,0-12.97-29.775C1018.4,22.292,1006.4,17.642,991.7,17.642Z" fill="#b9d4cf"/>
              <path id="Path_9" data-name="Path 9" d="M1001.3,76.442h-6v-33.6h6c5.4,0,9.75,1.65,12.75,4.575s4.65,7.125,4.65,12.225-1.65,9.3-4.65,12.225S1006.7,76.442,1001.3,76.442Zm.6-58.8H965.3v84h36.6c14.7,0,26.7-4.65,35.02-12.225a39.631,39.631,0,0,0,12.97-29.775,39.631,39.631,0,0,0-12.97-29.775C1028.594,22.292,1016.6,17.642,1001.9,17.642Z" fill="#fff"/>
            </g>
            <path id="Path_10" data-name="Path 10" d="M731.309,48.842c0-9-3.3-16.8-9.3-22.35s-14.7-8.85-25.5-8.85h-46.8v84h30v-22.8h10.8l6,11.4,6,11.4h30l-8.9-13.265-8.9-13.265v-3a38.659,38.659,0,0,0,9.786-6.876A23.49,23.49,0,0,0,731.309,48.842Zm-38.4,7.2h-13.2v-14.4h13.2a8.11,8.11,0,0,1,5.7,2.025,7.426,7.426,0,0,1,0,10.35A8.11,8.11,0,0,1,692.909,56.042Z" fill="#2d7f6f"/>
            <path id="Path_11" data-name="Path 11" d="M890.309,17.642h30v84h-33.6l-11.4-19.8-11.4-19.8h-4.2l2.4,5.7,2.4,5.7v28.2h-30v-84h33.6l11.46,19.8,11.46,19.8h3.68l-2.2-6-2.2-6v-27.6Z" fill="#2d7f6f"/>
            <path id="Path_12" data-name="Path 12" d="M758.309,17.642l-11.7,42-11.7,42h29.4l2.1-7.8,2.1-7.8h22.2l2.1,7.8,2.1,7.8h30l-11.4-42-11.4-42h-43.8Zm27.986,47.4H773.309l3-11.1,3-11.1h1.2Z" fill="#2d7f6f"/>
          </g>
        </g>
      </g>
    </g>
  </g>
</svg>
